<svg xmlns="http://www.w3.org/2000/svg" xmlns:xlink="http://www.w3.org/1999/xlink" width="1024" zoomAndPan="magnify" viewBox="0 0 768 225" height="300" preserveAspectRatio="xMidYMid meet" version="1.0"><defs><linearGradient id="soberano-grad" x1="0%" y1="0%" x2="100%" y2="0%"><stop offset="0%" stop-color="#F59E0B"/><stop offset="100%" stop-color="#EA580C"/></linearGradient></defs><path fill="url(#soberano-grad)" d="M 80.910156 24.824219 C 78.898438 28.128906 78.824219 29.152344 80.496094 30.539062 C 81.195312 31.121094 81.765625 32.28125 81.765625 33.117188 C 81.765625 35.167969 73.515625 44.085938 71.621094 44.085938 C 70.179688 44.085938 63.988281 38.042969 63.988281 36.632812 C 63.988281 36.261719 64.433594 35.511719 64.980469 34.964844 C 66.269531 33.675781 64.589844 29.695312 62.75 29.695312 C 60.871094 29.695312 60.09375 33.785156 61.675781 35.363281 C 62.832031 36.523438 62.792969 37.078125 61.265625 40.75 C 58.488281 47.433594 57.601562 47.878906 50.738281 46.046875 C 45.496094 44.644531 44.910156 44.269531 44.519531 42.054688 C 44.007812 39.140625 41.648438 37.300781 40.234375 38.714844 C 39.546875 39.402344 40.304688 40.984375 43.066406 44.621094 C 47.449219 50.398438 55.519531 64.214844 55.519531 65.945312 C 55.519531 66.734375 56.015625 66.933594 57.003906 66.539062 C 57.816406 66.214844 62.675781 64.992188 67.796875 63.820312 C 75.890625 61.964844 78.441406 61.742188 87.269531 62.121094 C 93.683594 62.398438 99.773438 63.203125 103.78125 64.308594 C 107.273438 65.273438 110.371094 66.070312 110.664062 66.082031 C 110.957031 66.089844 112.976562 62.929688 115.152344 59.054688 C 117.328125 55.175781 121.199219 49.261719 123.757812 45.90625 C 128.164062 40.121094 128.800781 38.160156 126.269531 38.160156 C 124.832031 38.160156 122.859375 40.539062 122.84375 42.296875 C 122.828125 43.8125 115.972656 46.527344 111.996094 46.589844 C 109.957031 46.621094 109.34375 46.015625 107.5625 42.183594 C 105.117188 36.9375 105.007812 35.726562 106.851562 34.378906 C 108.015625 33.523438 108.0625 33.054688 107.160156 31.320312 C 105.644531 28.410156 105.660156 28.417969 103.785156 30.113281 C 101.894531 31.824219 101.597656 33.945312 103.039062 35.386719 C 104.058594 36.40625 102.199219 39.660156 98.871094 42.667969 C 97.296875 44.085938 96.960938 44.105469 94.644531 42.910156 C 91.753906 41.414062 87.890625 37.09375 86.742188 34.074219 C 86.167969 32.5625 86.316406 31.457031 87.292969 29.964844 C 88.535156 28.066406 88.503906 27.71875 86.824219 25 C 84.566406 21.347656 83.058594 21.304688 80.910156 24.824219 M 82.652344 46.203125 C 82.203125 47.417969 81.761719 48.632812 81.328125 49.851562 C 80.792969 51.363281 83.242188 57.023438 84.179688 56.441406 C 85.558594 55.589844 87.046875 50.921875 86.558594 48.972656 C 86.292969 47.914062 85.515625 46.289062 84.832031 45.359375 C 83.621094 43.710938 83.5625 43.730469 82.652344 46.203125 M 67.375 50.34375 C 67.375 50.992188 68.109375 52.417969 69.003906 53.519531 C 70.496094 55.347656 70.683594 55.386719 71.222656 54.003906 C 71.589844 53.0625 71.246094 51.867188 70.308594 50.828125 C 68.546875 48.882812 67.375 48.6875 67.375 50.34375 M 96.691406 51.242188 C 95.792969 52.609375 95.636719 53.5 96.222656 53.863281 C 97.304688 54.53125 100.394531 51.894531 100.394531 50.304688 C 100.394531 48.445312 98.152344 49.011719 96.691406 51.242188 M 110.976562 54.246094 C 109.839844 56.449219 109.828125 56.789062 110.910156 56.789062 C 112.355469 56.789062 114.921875 53.457031 114.277344 52.417969 C 113.449219 51.070312 112.285156 51.714844 110.976562 54.246094 M 175.597656 52.832031 C 171.414062 53.914062 168.101562 56.671875 166.355469 60.515625 C 164.972656 63.554688 164.777344 66.277344 164.761719 82.554688 C 164.738281 105.285156 164.769531 105.382812 175.523438 114.511719 C 188.597656 125.605469 196.421875 132.496094 200.089844 136.140625 L 203.6875 139.71875 L 203.6875 146.769531 C 203.6875 151.121094 203.300781 154.207031 202.671875 154.832031 C 201.4375 156.066406 193.839844 156.191406 193.097656 154.988281 C 192.804688 154.515625 192.304688 154.289062 191.988281 154.488281 C 191.671875 154.683594 191.414062 152.878906 191.414062 150.480469 L 191.414062 146.113281 L 178.289062 145.878906 L 165.164062 145.648438 L 165.242188 156.886719 C 165.335938 170.882812 165.113281 169.640625 168.167969 173.121094 C 172.835938 178.4375 175.230469 178.851562 199.570312 178.550781 L 221.175781 178.285156 L 224.785156 175.894531 C 231.164062 171.671875 231.765625 169.121094 231.464844 147.515625 L 231.207031 129.050781 L 228.910156 125.582031 C 227.644531 123.671875 219.351562 115.570312 210.476562 107.578125 C 201.601562 99.585938 193.777344 91.957031 193.089844 90.621094 C 192.359375 89.214844 191.835938 85.902344 191.835938 82.714844 C 191.835938 76.015625 192.964844 74.566406 198.199219 74.566406 C 203.152344 74.566406 204.535156 76.550781 204.535156 83.648438 L 204.535156 88.960938 L 231.628906 88.960938 L 231.609375 76.898438 C 231.597656 66.949219 231.316406 64.21875 230.011719 61.347656 C 228.140625 57.230469 224.058594 53.90625 219.351562 52.664062 C 215.394531 51.617188 179.75 51.753906 175.597656 52.832031 M 251.449219 52.675781 C 249.164062 52.976562 246.339844 53.597656 245.175781 54.058594 C 241.976562 55.324219 238.507812 59.195312 237.503906 62.617188 C 236.914062 64.628906 236.695312 78.0625 236.867188 101.8125 C 237.125 136.917969 237.183594 138.015625 238.902344 140.335938 C 239.875 141.652344 242.320312 143.648438 244.339844 144.777344 C 247.96875 146.800781 248.28125 146.824219 269.789062 146.777344 C 283.992188 146.746094 292.605469 146.382812 294.5625 145.738281 C 296.210938 145.191406 298.882812 143.285156 300.496094 141.496094 C 303.105469 138.609375 303.503906 137.535156 304.023438 131.980469 C 304.953125 122.074219 303.828125 63.046875 302.667969 60.804688 C 301.1875 57.9375 299.21875 55.917969 296.402344 54.375 C 294.328125 53.234375 290.332031 52.898438 274.734375 52.554688 C 264.214844 52.320312 253.734375 52.375 251.449219 52.675781 M 310.089844 52.273438 C 309.777344 52.582031 309.523438 80.96875 309.523438 115.351562 L 309.523438 177.863281 L 337.410156 177.863281 C 355.011719 177.863281 366.175781 177.53125 367.679688 176.964844 C 371.222656 175.628906 375.46875 171.144531 376.414062 167.738281 C 376.875 166.089844 377.25 154.910156 377.253906 142.894531 C 377.257812 119.132812 377.027344 117.761719 372.476562 114.78125 C 370.167969 113.265625 370.164062 113.25 372.003906 112.566406 C 373.023438 112.191406 374.625 110.628906 375.558594 109.101562 C 377.132812 106.515625 377.25 104.851562 377.238281 85.574219 C 377.222656 67.144531 377.046875 64.441406 375.640625 61.347656 C 373.78125 57.25 369.71875 53.9375 364.980469 52.640625 C 361.292969 51.636719 311.0625 51.296875 310.089844 52.273438 M 393.890625 52.292969 C 393.804688 52.378906 391.355469 52.539062 388.453125 52.640625 L 383.175781 52.832031 L 383.390625 115.558594 L 383.609375 178.285156 L 409.855469 178.109375 C 424.292969 178.007812 436.578125 177.914062 437.160156 177.894531 C 437.953125 177.871094 438.21875 174.996094 438.21875 166.433594 L 438.21875 155.003906 L 411.125 155.003906 L 411.125 126.273438 L 420.488281 126.03125 L 429.851562 125.792969 L 434.035156 115.425781 C 436.335938 109.726562 438.21875 104.675781 438.21875 104.207031 C 438.21875 103.671875 433.203125 103.355469 424.671875 103.355469 L 411.125 103.355469 L 411.125 75.414062 L 438.21875 75.414062 L 438.21875 52.699219 L 432.082031 52.179688 C 426.828125 51.734375 394.355469 51.832031 393.890625 52.292969 M 443.914062 52.21875 C 443.578125 52.558594 443.300781 80.96875 443.300781 115.351562 L 443.300781 177.863281 L 445.628906 177.882812 C 446.910156 177.894531 453.003906 178.132812 459.175781 178.414062 L 470.394531 178.925781 L 470.394531 155.394531 C 470.394531 142.449219 470.578125 132.042969 470.800781 132.269531 C 471.433594 132.898438 476.679688 150.699219 480.160156 164 C 481.878906 170.578125 483.527344 176.339844 483.824219 176.808594 C 484.421875 177.753906 511.878906 178.933594 511.878906 178.015625 C 511.878906 177.703125 510.867188 174.410156 509.632812 170.695312 C 508.398438 166.984375 505.035156 155.742188 502.164062 145.714844 L 496.945312 127.484375 L 499.121094 126.996094 C 504.398438 125.8125 508.71875 121.503906 510.222656 115.925781 C 510.824219 113.691406 511.054688 103.980469 510.878906 88.234375 C 510.566406 60.167969 510.351562 59.25 502.980469 54.671875 L 498.894531 52.132812 L 471.714844 51.867188 C 456.761719 51.722656 444.253906 51.882812 443.914062 52.21875 M 52.980469 54.480469 C 52.980469 55.914062 55.402344 59.328125 56.414062 59.328125 C 57.925781 59.328125 57.234375 55.164062 55.578125 54.277344 C 53.441406 53.136719 52.980469 53.171875 52.980469 54.480469 M 616.792969 54.054688 L 601.902344 54.285156 L 601.34375 81.570312 C 601.035156 96.582031 600.785156 113.15625 600.785156 118.40625 L 600.78125 127.953125 L 614.539062 127.71875 L 628.300781 127.484375 L 628.300781 113.726562 C 628.300781 106.160156 628.371094 99.96875 628.457031 99.96875 C 628.84375 99.96875 641.421875 126.035156 641.421875 126.835938 C 641.421875 128.257812 642.691406 128.347656 658.578125 128.066406 L 673.613281 127.800781 L 673.394531 90.9375 L 673.171875 54.074219 L 660.503906 54.203125 C 653.535156 54.273438 647.628906 54.53125 647.378906 54.78125 C 647.128906 55.027344 646.804688 61.375 646.652344 68.882812 L 646.382812 82.539062 L 643.191406 75.378906 C 639.859375 67.902344 633.152344 54.980469 632.222656 54.246094 C 631.929688 54.015625 624.984375 53.929688 616.792969 54.054688 M 534.347656 55.304688 C 534.160156 55.890625 532.089844 64.9375 529.746094 75.414062 C 527.40625 85.890625 523.757812 101.839844 521.648438 110.855469 C 519.535156 119.871094 517.808594 127.402344 517.808594 127.597656 C 517.808594 127.792969 524.160156 127.84375 531.921875 127.71875 L 546.039062 127.484375 L 547.0625 122.828125 C 547.628906 120.269531 549.898438 109.410156 552.109375 98.699219 C 554.320312 87.988281 556.417969 78.683594 556.769531 78.023438 C 557.179688 77.246094 557.617188 78.144531 558.011719 80.5625 C 558.347656 82.621094 559.882812 89.828125 561.421875 96.582031 C 562.964844 103.335938 564.355469 110 564.511719 111.398438 C 564.792969 113.875 564.699219 113.945312 560.777344 114.195312 L 556.753906 114.457031 L 556.753906 127.910156 L 576.226562 127.910156 C 586.9375 127.910156 595.703125 127.753906 595.703125 127.5625 C 595.703125 127.179688 592.792969 114.789062 588.828125 98.289062 C 587.433594 92.476562 584.984375 81.808594 583.386719 74.582031 C 581.789062 67.355469 580.046875 59.824219 579.515625 57.847656 L 578.546875 54.246094 L 556.617188 54.246094 C 539.820312 54.246094 534.609375 54.496094 534.347656 55.304688 M 687.523438 55.4375 C 686.105469 56.058594 683.972656 57.714844 682.785156 59.128906 L 680.628906 61.691406 L 680.136719 89.929688 C 679.570312 122.332031 679.601562 122.519531 686.222656 126.144531 C 689.953125 128.183594 690.007812 128.1875 714.078125 128 C 750.304688 127.71875 748.097656 130.078125 748.101562 91.628906 C 748.105469 60.511719 748.011719 59.988281 741.78125 56.335938 L 738.21875 54.246094 L 714.164062 54.28125 C 696.082031 54.304688 689.464844 54.59375 687.523438 55.4375 M 74.148438 64.382812 C 67.214844 65.273438 55.582031 68.242188 54.40625 69.417969 C 52.519531 71.304688 54.839844 71.238281 63.027344 69.175781 C 78.253906 65.335938 95.148438 65.421875 106.890625 69.402344 C 109.964844 70.445312 112.128906 70.773438 112.628906 70.28125 C 116.339844 66.621094 89.136719 62.449219 74.148438 64.382812 M 708.480469 68.8125 C 707.742188 69.546875 707.464844 75.710938 707.464844 91.21875 C 707.464844 115.289062 707.199219 114.363281 714.019531 114.363281 C 720.222656 114.363281 720.128906 114.675781 720.738281 91.71875 C 721.375 67.65625 721.414062 67.792969 713.851562 67.792969 C 711.457031 67.792969 709.039062 68.25 708.480469 68.8125 M 72.878906 69.886719 C 72.410156 70.035156 69.265625 70.609375 65.890625 71.167969 C 61.910156 71.824219 59.949219 72.503906 60.3125 73.097656 C 60.675781 73.683594 60.351562 73.808594 59.402344 73.441406 C 57.546875 72.730469 53.679688 73.644531 54.300781 74.648438 C 54.554688 75.058594 54.207031 75.183594 53.53125 74.921875 C 51.976562 74.324219 43.53125 77.894531 44.144531 78.890625 C 44.398438 79.296875 44.074219 79.425781 43.429688 79.179688 C 41.824219 78.5625 33.183594 85.082031 27.851562 90.929688 C 22.25 97.074219 19.011719 103.875 18.46875 110.636719 L 18.050781 115.851562 L 64.089844 116.46875 C 124.660156 117.28125 149.265625 116.921875 150.421875 115.207031 C 150.898438 114.511719 151.117188 111.535156 150.910156 108.601562 C 150.363281 100.816406 146.621094 93.738281 139.691406 87.386719 C 131.496094 79.878906 115.046875 71.972656 110.359375 73.292969 C 109.125 73.636719 108.824219 73.5625 109.515625 73.082031 C 111.429688 71.742188 94.863281 69.453125 83.882812 69.542969 C 78.296875 69.585938 73.34375 69.742188 72.878906 69.886719 M 264.851562 99.71875 L 265.074219 129.179688 L 276.082031 129.179688 L 276.082031 70.757812 L 264.628906 70.257812 Z M 337.464844 88.539062 L 337.464844 102.507812 L 342.414062 102.507812 C 349.839844 102.507812 350.164062 101.898438 350.164062 88.003906 C 350.164062 80.265625 349.839844 76.273438 349.148438 75.585938 C 348.574219 75.007812 345.820312 74.566406 342.796875 74.566406 L 337.464844 74.566406 Z M 470.769531 75.65625 C 470.539062 76.257812 470.457031 83.210938 470.582031 91.109375 L 470.816406 105.472656 L 475.390625 106.03125 C 480.464844 106.648438 481.890625 106.355469 482.585938 104.539062 C 482.84375 103.863281 483.3125 97.609375 483.628906 90.632812 C 484.328125 75.164062 484.050781 74.566406 476.164062 74.566406 C 472.886719 74.566406 471.042969 74.941406 470.769531 75.65625 M 65.972656 80.109375 C 65.695312 80.828125 65.683594 81.625 65.941406 81.886719 C 66.683594 82.628906 68.21875 81.371094 68.21875 80.023438 C 68.21875 78.398438 66.605469 78.460938 65.972656 80.109375 M 76.121094 80.984375 C 75.839844 81.71875 76.171875 82.878906 76.855469 83.566406 C 77.933594 84.644531 78.238281 84.648438 79.101562 83.609375 C 80.3125 82.152344 79.511719 79.648438 77.839844 79.648438 C 77.175781 79.648438 76.402344 80.25 76.121094 80.984375 M 95.738281 81.339844 C 95.398438 81.886719 95.503906 82.714844 95.96875 83.183594 C 96.535156 83.746094 97.019531 83.699219 97.429688 83.035156 C 97.769531 82.488281 97.664062 81.660156 97.199219 81.195312 C 96.632812 80.628906 96.148438 80.679688 95.738281 81.339844 M 84.464844 87.320312 C 84.667969 87.933594 85.335938 88.597656 85.949219 88.804688 C 86.582031 89.015625 86.902344 88.699219 86.6875 88.0625 C 86.484375 87.453125 85.816406 86.785156 85.207031 86.582031 C 84.574219 86.371094 84.253906 86.6875 84.464844 87.320312 M 117.40625 87.597656 C 116.714844 88.429688 116.679688 88.984375 117.292969 89.363281 C 117.785156 89.667969 118.421875 89.304688 118.707031 88.554688 C 119.421875 86.691406 118.636719 86.113281 117.40625 87.597656 M 63.828125 92.167969 C 64.128906 93.757812 63.953125 94.121094 63.132812 93.613281 C 62.421875 93.175781 62.238281 93.265625 62.613281 93.875 C 62.933594 94.390625 63.816406 94.574219 64.578125 94.285156 C 65.601562 93.890625 65.777344 94.066406 65.261719 94.957031 C 64.871094 95.628906 64.886719 95.863281 65.292969 95.492188 C 66.800781 94.121094 66.601562 90.871094 64.988281 90.449219 C 63.699219 90.113281 63.492188 90.421875 63.828125 92.167969 M 126.382812 91.195312 C 125.707031 91.871094 126.46875 93.195312 127.539062 93.195312 C 127.976562 93.195312 128.335938 92.625 128.335938 91.925781 C 128.335938 90.617188 127.335938 90.242188 126.382812 91.195312 M 71.699219 93.507812 C 70.921875 94.445312 71 95.007812 72.0625 96.070312 C 73.800781 97.808594 73.808594 97.808594 73.761719 95.382812 C 73.710938 92.714844 72.941406 92.011719 71.699219 93.507812 M 96.292969 94.414062 C 96.453125 95.1875 96.964844 95.804688 97.429688 95.78125 C 98.6875 95.714844 98.457031 93.820312 97.136719 93.378906 C 96.425781 93.144531 96.109375 93.53125 96.292969 94.414062 M 119.019531 97.851562 C 119.019531 98.550781 119.402344 99.121094 119.867188 99.121094 C 120.332031 99.121094 120.714844 98.550781 120.714844 97.851562 C 120.714844 97.152344 120.332031 96.582031 119.867188 96.582031 C 119.402344 96.582031 119.019531 97.152344 119.019531 97.851562 M 53.191406 98.300781 C 51.042969 99.164062 50.625 100.816406 52.558594 100.816406 C 53.253906 100.816406 54.082031 100.910156 54.390625 101.027344 C 54.703125 101.144531 55.019531 100.382812 55.097656 99.332031 C 55.175781 98.285156 55.207031 97.453125 55.167969 97.480469 C 55.128906 97.511719 54.238281 97.878906 53.191406 98.300781 M 84.441406 100.230469 C 83.292969 101.617188 83.980469 102.507812 86.203125 102.507812 C 87.253906 102.507812 87.722656 102.015625 87.542969 101.097656 C 87.179688 99.21875 85.640625 98.789062 84.441406 100.230469 M 107.261719 100.28125 C 106.503906 101.191406 106.488281 101.667969 107.199219 102.105469 C 108.582031 102.960938 110.292969 101.0625 109.164062 99.933594 C 108.550781 99.320312 107.96875 99.425781 107.261719 100.28125 M 18.574219 119.019531 C 17.78125 121.078125 18.800781 122.554688 21.367188 123.066406 C 24.789062 123.75 142.605469 123.851562 146.835938 123.175781 C 149.476562 122.75 150.347656 122.226562 150.347656 121.058594 C 150.347656 120.203125 149.613281 119.109375 148.710938 118.625 C 147.621094 118.042969 125.570312 117.75 83.066406 117.75 C 26.953125 117.75 19 117.90625 18.574219 119.019531 M 21.824219 127.75 C 18.804688 130.539062 18.265625 131.539062 18.265625 134.363281 C 18.265625 138.277344 19.738281 140.65625 23.65625 143.078125 C 26.472656 144.820312 27.234375 144.84375 83.800781 144.84375 C 145.964844 144.84375 144.773438 144.929688 148.511719 140.175781 C 150.738281 137.347656 150.898438 132.914062 148.902344 129.535156 C 145.949219 124.53125 147.660156 124.660156 83.84375 124.558594 L 25.382812 124.46875 Z M 337.464844 140.1875 L 337.464844 155.003906 L 342.796875 155.003906 C 345.820312 155.003906 348.574219 154.5625 349.148438 153.988281 C 350.570312 152.566406 350.570312 127.804688 349.148438 126.386719 C 348.574219 125.808594 345.820312 125.367188 342.796875 125.367188 L 337.464844 125.367188 Z M 109.425781 132.707031 C 108.453125 133.679688 108.808594 134.683594 110.132812 134.683594 C 110.828125 134.683594 111.402344 134.109375 111.402344 133.414062 C 111.402344 132.089844 110.398438 131.734375 109.425781 132.707031 M 518.382812 136.164062 C 518.179688 136.515625 517.871094 146.324219 517.699219 157.964844 L 517.382812 179.132812 L 527.542969 179.390625 C 540.433594 179.71875 544.566406 179.121094 547.125 176.5625 C 548.902344 174.785156 549.132812 173.777344 549.132812 167.835938 C 549.132812 162.574219 548.796875 160.699219 547.578125 159.195312 C 546.066406 157.328125 546.066406 157.226562 547.578125 155.714844 C 548.796875 154.496094 549.132812 152.851562 549.132812 148.1875 C 549.132812 140.578125 547.691406 137.605469 543.417969 136.417969 C 539.796875 135.414062 518.945312 135.199219 518.382812 136.164062 M 553.121094 136.058594 C 552.121094 137.058594 552.414062 173.539062 553.4375 175.449219 C 554.972656 178.320312 559.414062 179.554688 568.183594 179.554688 C 576.957031 179.554688 581.398438 178.320312 582.933594 175.449219 C 583.511719 174.371094 583.847656 166.703125 583.847656 154.636719 L 583.847656 135.527344 L 580.671875 135.539062 C 578.925781 135.542969 576.078125 135.78125 574.339844 136.070312 L 571.183594 136.589844 L 570.953125 153.628906 L 570.726562 170.667969 L 565.644531 170.667969 L 565.222656 153.308594 L 564.796875 135.953125 L 559.257812 135.707031 C 556.210938 135.570312 553.449219 135.730469 553.121094 136.058594 M 587.800781 136.09375 C 587.488281 136.402344 587.234375 146.101562 587.234375 157.644531 L 587.234375 178.632812 L 590.023438 179.15625 C 591.558594 179.445312 594.320312 179.554688 596.164062 179.40625 L 599.511719 179.132812 L 599.933594 171.511719 L 600.359375 163.894531 L 603.320312 171.28125 C 605.902344 177.710938 606.597656 178.734375 608.691406 179.195312 C 610.832031 179.667969 618.5625 179.003906 618.5625 178.351562 C 618.5625 178.207031 617.261719 174.589844 615.667969 170.3125 L 612.773438 162.527344 L 614.644531 161.816406 C 618.191406 160.46875 618.917969 158.585938 619.269531 149.835938 L 619.605469 141.480469 L 616.628906 138.507812 L 613.652344 135.527344 L 601.007812 135.527344 C 594.054688 135.527344 588.109375 135.78125 587.800781 136.09375 M 627.050781 136.601562 C 622.382812 138.257812 621.976562 139.972656 621.960938 157.988281 C 621.949219 175.871094 622.234375 176.988281 627.296875 178.660156 C 631.109375 179.917969 652.21875 179.558594 653.332031 178.214844 C 653.824219 177.625 654.074219 172.339844 653.9375 165.46875 L 653.699219 153.734375 L 646.292969 153.488281 L 638.882812 153.242188 L 638.882812 157.417969 C 638.882812 160.078125 639.285156 161.75 639.988281 162.019531 C 640.785156 162.324219 640.964844 163.597656 640.625 166.554688 C 640.175781 170.453125 640.019531 170.667969 637.613281 170.667969 L 635.074219 170.667969 L 634.835938 158.503906 C 634.585938 145.601562 635.058594 143.691406 638.378906 144.167969 C 639.59375 144.339844 640.277344 145.210938 640.578125 146.960938 L 641.011719 149.5 L 647.675781 149.75 L 654.339844 149.996094 L 653.945312 145.25 C 653.636719 141.542969 653.050781 140 651.28125 138.226562 C 649.113281 136.058594 648.5625 135.941406 639.5 135.753906 C 633.597656 135.628906 628.878906 135.949219 627.050781 136.601562 M 657.027344 136.648438 C 656.773438 137.308594 656.683594 146.078125 656.828125 156.144531 L 657.085938 174.441406 L 659.429688 176.785156 C 661.703125 179.058594 662.101562 179.140625 672.253906 179.410156 L 682.734375 179.691406 L 685.320312 177.296875 L 687.910156 174.898438 L 688.039062 156.695312 C 688.109375 146.683594 688.125 137.808594 688.078125 136.972656 C 688 135.636719 687.257812 135.484375 681.851562 135.703125 L 675.714844 135.953125 L 675.484375 153.574219 L 675.253906 171.199219 L 672.945312 170.933594 L 670.632812 170.667969 L 670.210938 153.308594 L 669.785156 135.953125 L 663.636719 135.703125 C 658.949219 135.515625 657.375 135.738281 657.027344 136.648438 M 691.886719 139.105469 C 691.644531 141.097656 691.523438 150.917969 691.621094 160.929688 L 691.800781 179.132812 L 717.199219 179.132812 L 717.457031 175.113281 L 717.71875 171.089844 L 703.988281 171.089844 L 704.246094 166.644531 L 704.5 162.199219 L 708.488281 162.164062 C 710.679688 162.144531 712.664062 161.941406 712.894531 161.710938 C 713.125 161.480469 714.074219 159.589844 715.007812 157.511719 L 716.703125 153.734375 L 710.601562 153.308594 L 704.5 152.886719 L 704.242188 148.902344 L 703.988281 144.914062 L 710.59375 144.667969 L 717.199219 144.417969 L 717.199219 135.953125 L 692.332031 135.484375 Z M 720.855469 136.53125 C 720.644531 137.144531 720.636719 147.074219 720.835938 158.601562 L 721.203125 179.554688 L 726.558594 179.554688 C 729.507812 179.554688 732.109375 179.246094 732.339844 178.871094 C 732.574219 178.492188 732.84375 175.445312 732.941406 172.097656 C 733.039062 168.75 733.410156 166.007812 733.765625 166.007812 C 734.117188 166.007812 735.460938 168.695312 736.75 171.980469 C 738.039062 175.261719 739.5 178.207031 740 178.523438 C 741.382812 179.402344 749.265625 179.5625 750.597656 178.738281 C 751.5625 178.140625 751.292969 176.742188 749.089844 170.910156 C 746.230469 163.324219 745.917969 161.777344 747.257812 161.777344 C 747.722656 161.777344 748.867188 161.015625 749.796875 160.082031 C 751.28125 158.597656 751.492188 157.261719 751.492188 149.222656 C 751.492188 140.46875 751.394531 139.964844 749.308594 138.003906 C 747.226562 136.046875 746.535156 135.941406 734.179688 135.683594 C 724.039062 135.472656 721.152344 135.65625 720.855469 136.53125 M 600.644531 149.078125 L 600.359375 154.160156 L 603.109375 154.15625 L 605.863281 154.15625 L 605.863281 149.597656 C 605.863281 145.585938 605.632812 144.980469 603.957031 144.527344 C 602.910156 144.25 601.800781 144.011719 601.492188 144.007812 C 601.183594 144 600.804688 146.28125 600.644531 149.078125 M 733.292969 147.347656 C 732.46875 152.230469 733.320312 154.15625 736.308594 154.15625 C 738.746094 154.15625 738.789062 154.074219 738.789062 149.589844 C 738.789062 146.207031 738.445312 144.890625 737.453125 144.511719 C 734.707031 143.457031 733.851562 144.039062 733.292969 147.347656 M 530.507812 149.074219 C 530.507812 153.039062 530.644531 153.308594 532.644531 153.308594 C 535.109375 153.308594 536.84375 149.976562 536.042969 146.78125 C 535.671875 145.304688 534.957031 144.84375 533.03125 144.84375 C 530.566406 144.84375 530.507812 144.941406 530.507812 149.074219 M 18.832031 147.101562 C 18.015625 147.914062 18.160156 152.675781 19.039062 154.066406 C 19.9375 155.484375 24.113281 157.136719 32.660156 159.453125 L 39.011719 161.171875 L 44.25 159.359375 C 50.777344 157.097656 55.089844 157.0625 60.800781 159.234375 C 66.585938 161.433594 68.984375 161.371094 77.578125 158.800781 C 84.320312 156.78125 84.894531 156.738281 88.460938 157.953125 C 92.65625 159.382812 103.449219 159.605469 112.421875 158.449219 C 116.984375 157.859375 119.277344 158.027344 124.105469 159.292969 C 130.519531 160.976562 135.933594 160.589844 140.824219 158.089844 C 142.101562 157.433594 144.394531 156.632812 145.910156 156.304688 C 149.199219 155.597656 150.660156 153.269531 149.921875 149.910156 C 149.050781 145.9375 148.320312 145.941406 134.050781 149.980469 C 130.691406 150.933594 129.4375 150.933594 126.429688 149.988281 C 120.425781 148.101562 112.054688 147.914062 106.5625 149.546875 C 100.976562 151.207031 95.222656 151.203125 91.996094 149.535156 C 87.894531 147.414062 82.25 147.085938 77.425781 148.6875 C 73.34375 150.042969 71.949219 150.074219 60.757812 149.050781 C 50.625 148.125 48.09375 148.125 45.894531 149.054688 C 40.945312 151.148438 36.050781 151.042969 29.890625 148.707031 C 24.296875 146.589844 19.96875 145.960938 18.832031 147.101562 M 237.554688 166.007812 L 237.554688 177.015625 L 303.597656 177.015625 L 303.597656 155.003906 L 237.554688 155.003906 Z M 530.507812 166.488281 C 530.507812 171.125 530.546875 171.199219 532.820312 170.933594 C 535.515625 170.621094 536.996094 167.515625 536.117188 164.011719 C 535.667969 162.21875 535.054688 161.777344 533.03125 161.777344 C 530.53125 161.777344 530.507812 161.824219 530.507812 166.488281 M 18.832031 164.035156 C 17.574219 165.289062 18.390625 170.730469 20.332031 174.046875 C 24.09375 180.460938 31.601562 184.03125 44.308594 185.445312 C 67.289062 188.007812 121.324219 187.21875 133.117188 184.144531 C 145.621094 180.886719 151.277344 174.632812 150.472656 164.949219 C 150.355469 163.554688 146.617188 163.46875 84.871094 163.46875 C 48.859375 163.46875 19.140625 163.722656 18.832031 164.035156 " fill-opacity="1" fill-rule="evenodd"/></svg>