<svg xmlns="http://www.w3.org/2000/svg" xmlns:xlink="http://www.w3.org/1999/xlink" width="1080" zoomAndPan="magnify" viewBox="0 0 810 809.999993" height="1080" preserveAspectRatio="xMidYMid meet" version="1.0"><defs><clipPath id="fbad5f7b86"><path d="M 112 39 L 729.222656 39 L 729.222656 755 L 112 755 Z M 112 39 " clip-rule="nonzero"/></clipPath><linearGradient id="soberano-grad" x1="0%" y1="0%" x2="100%" y2="0%"><stop offset="0%" stop-color="#F59E0B"/><stop offset="100%" stop-color="#EA580C"/></linearGradient></defs><g clip-path="url(#fbad5f7b86)"><path fill="url(#soberano-grad)" d="M 384.8125 50.796875 C 376.074219 65.125 375.753906 69.570312 383.015625 75.59375 C 386.046875 78.109375 388.527344 83.140625 388.527344 86.769531 C 388.527344 95.667969 352.726562 134.375 344.5 134.375 C 338.238281 134.375 311.375 108.148438 311.375 102.035156 C 311.375 100.425781 313.316406 97.167969 315.683594 94.796875 C 321.285156 89.199219 313.984375 71.921875 306.011719 71.921875 C 297.859375 71.921875 294.488281 89.671875 301.339844 96.523438 C 306.371094 101.558594 306.191406 103.964844 299.570312 119.890625 C 287.519531 148.898438 283.675781 150.832031 253.890625 142.871094 C 231.148438 136.792969 228.601562 135.15625 226.910156 125.558594 C 224.679688 112.902344 214.445312 104.925781 208.308594 111.0625 C 205.328125 114.042969 208.613281 120.90625 220.59375 136.695312 C 239.617188 161.761719 274.636719 221.714844 274.636719 229.214844 C 274.640625 232.636719 276.785156 233.496094 281.066406 231.796875 C 284.605469 230.390625 305.679688 225.078125 327.90625 219.988281 C 363.023438 211.949219 374.101562 210.980469 412.40625 212.628906 C 440.234375 213.820312 466.652344 217.320312 484.046875 222.121094 C 499.199219 226.300781 512.640625 229.761719 513.910156 229.804688 C 515.179688 229.851562 523.945312 216.132812 533.386719 199.3125 C 542.824219 182.496094 559.625 156.820312 570.71875 142.257812 C 589.839844 117.160156 592.605469 108.660156 581.632812 108.660156 C 575.382812 108.660156 566.832031 118.976562 566.761719 126.609375 C 566.699219 133.1875 536.941406 144.96875 519.695312 145.234375 C 510.839844 145.375 508.1875 142.742188 500.445312 126.109375 C 489.847656 103.347656 489.367188 98.089844 497.371094 92.238281 C 502.425781 88.542969 502.632812 86.5 498.707031 78.976562 C 492.125 66.351562 492.203125 66.375 484.066406 73.734375 C 475.867188 81.160156 474.5625 90.359375 480.824219 96.621094 C 485.253906 101.050781 477.175781 115.164062 462.734375 128.214844 C 455.910156 134.375 454.453125 134.460938 444.40625 129.265625 C 431.867188 122.777344 415.09375 104.027344 410.109375 90.917969 C 407.613281 84.359375 408.257812 79.570312 412.503906 73.09375 C 417.898438 64.859375 417.753906 63.34375 410.464844 51.546875 C 400.679688 35.710938 394.125 35.519531 384.8125 50.796875 M 392.363281 143.558594 C 390.421875 148.824219 388.507812 154.097656 386.617188 159.378906 C 384.300781 165.945312 394.925781 190.5 398.992188 187.988281 C 404.980469 184.289062 411.429688 164.023438 409.308594 155.570312 C 408.15625 150.984375 404.785156 143.925781 401.816406 139.886719 C 396.566406 132.738281 396.316406 132.832031 392.363281 143.558594 M 326.070312 161.519531 C 326.070312 164.328125 329.257812 170.527344 333.148438 175.296875 C 339.617188 183.230469 340.4375 183.410156 342.777344 177.40625 C 344.371094 173.308594 342.878906 168.125 338.804688 163.628906 C 331.160156 155.179688 326.070312 154.339844 326.070312 161.519531 M 453.28125 165.410156 C 449.386719 171.351562 448.699219 175.214844 451.253906 176.792969 C 455.941406 179.6875 469.351562 168.25 469.351562 161.359375 C 469.351562 153.285156 459.621094 155.734375 453.28125 165.410156 M 515.273438 178.460938 C 510.332031 188.015625 510.292969 189.484375 514.972656 189.484375 C 521.25 189.484375 532.394531 175.035156 529.597656 170.515625 C 525.992188 164.679688 520.953125 167.472656 515.273438 178.460938 M 795.660156 172.316406 C 777.519531 177.011719 763.136719 188.972656 755.558594 205.652344 C 749.566406 218.851562 748.710938 230.664062 748.640625 301.292969 C 748.542969 399.917969 748.6875 400.34375 795.351562 439.953125 C 852.074219 488.09375 886.027344 517.988281 901.945312 533.808594 L 917.558594 549.324219 L 917.558594 579.914062 C 917.558594 598.804688 915.871094 612.1875 913.148438 614.910156 C 907.792969 620.269531 874.824219 620.804688 871.597656 615.585938 C 870.328125 613.535156 868.164062 612.554688 866.789062 613.410156 C 865.410156 614.265625 864.285156 606.4375 864.285156 596.015625 L 864.285156 577.070312 L 807.34375 576.066406 L 750.398438 575.058594 L 750.730469 623.824219 C 751.136719 684.546875 750.167969 679.167969 763.429688 694.265625 C 783.679688 717.335938 794.070312 719.132812 899.691406 717.832031 L 993.429688 716.675781 L 1009.085938 706.304688 C 1036.78125 687.96875 1039.382812 676.914062 1038.074219 583.160156 L 1036.957031 503.03125 L 1026.984375 487.980469 C 1021.503906 479.703125 985.515625 444.550781 947.011719 409.871094 C 908.503906 375.191406 874.554688 342.082031 871.566406 336.296875 C 868.402344 330.1875 866.125 315.8125 866.125 301.980469 C 866.125 272.910156 871.027344 266.632812 893.734375 266.632812 C 915.226562 266.632812 921.230469 275.234375 921.230469 306.027344 L 921.230469 329.085938 L 1038.792969 329.085938 L 1038.714844 276.734375 C 1038.648438 233.570312 1037.425781 221.730469 1031.765625 209.261719 C 1023.65625 191.402344 1005.949219 176.976562 985.523438 171.582031 C 968.355469 167.050781 813.675781 167.644531 795.660156 172.316406 M 1124.792969 171.640625 C 1114.875 172.9375 1102.625 175.636719 1097.574219 177.632812 C 1083.695312 183.128906 1068.644531 199.921875 1064.28125 214.785156 C 1061.71875 223.507812 1060.777344 281.789062 1061.527344 384.847656 C 1062.640625 537.171875 1062.894531 541.933594 1070.347656 552.007812 C 1074.566406 557.710938 1085.1875 566.378906 1093.949219 571.269531 C 1109.683594 580.058594 1111.042969 580.164062 1204.367188 579.953125 C 1266.003906 579.8125 1303.375 578.242188 1311.859375 575.445312 C 1319.015625 573.082031 1330.605469 564.800781 1337.621094 557.035156 C 1348.929688 544.515625 1350.65625 539.851562 1352.917969 515.746094 C 1356.949219 472.761719 1352.074219 216.640625 1347.039062 206.90625 C 1340.605469 194.464844 1332.074219 185.714844 1319.847656 179.003906 C 1310.855469 174.066406 1293.515625 172.613281 1225.824219 171.113281 C 1180.175781 170.101562 1134.714844 170.339844 1124.792969 171.640625 M 1379.238281 169.890625 C 1377.886719 171.234375 1376.785156 294.398438 1376.785156 443.589844 L 1376.785156 714.839844 L 1497.785156 714.839844 C 1574.164062 714.839844 1622.59375 713.402344 1629.125 710.941406 C 1644.503906 705.140625 1662.929688 685.6875 1667.035156 670.914062 C 1669.023438 663.753906 1670.660156 615.242188 1670.671875 563.109375 C 1670.691406 460.007812 1669.683594 454.058594 1649.9375 441.121094 C 1639.921875 434.550781 1639.902344 434.472656 1647.894531 431.519531 C 1652.324219 429.875 1659.261719 423.105469 1663.308594 416.46875 C 1670.144531 405.253906 1670.660156 398.042969 1670.597656 314.390625 C 1670.539062 234.417969 1669.765625 222.699219 1663.664062 209.261719 C 1655.597656 191.496094 1637.980469 177.109375 1617.421875 171.496094 C 1601.421875 167.125 1383.46875 165.652344 1379.238281 169.890625 M 1742.867188 169.96875 C 1742.484375 170.355469 1731.859375 171.039062 1719.265625 171.496094 L 1696.363281 172.320312 L 1697.304688 444.496094 L 1698.246094 716.675781 L 1812.136719 715.902344 C 1874.773438 715.476562 1928.089844 715.0625 1930.617188 714.984375 C 1934.054688 714.875 1935.207031 702.394531 1935.207031 665.242188 L 1935.207031 615.644531 L 1817.644531 615.644531 L 1817.644531 490.980469 L 1858.273438 489.9375 L 1898.898438 488.898438 L 1917.054688 443.921875 C 1927.039062 419.183594 1935.207031 397.277344 1935.207031 395.242188 C 1935.207031 392.914062 1913.449219 391.542969 1876.425781 391.542969 L 1817.644531 391.542969 L 1817.644531 270.308594 L 1935.207031 270.308594 L 1935.207031 171.742188 L 1908.574219 169.488281 C 1885.773438 167.5625 1744.882812 167.972656 1742.867188 169.972656 M 1959.925781 169.664062 C 1958.457031 171.136719 1957.25 294.398438 1957.25 443.589844 L 1957.25 714.839844 L 1967.355469 714.925781 C 1972.914062 714.972656 1999.359375 716.011719 2026.136719 717.234375 L 2074.8125 719.457031 L 2074.8125 617.34375 C 2074.8125 561.183594 2075.609375 516.027344 2076.585938 517 C 2079.324219 519.738281 2102.097656 596.96875 2117.1875 654.679688 C 2124.652344 683.222656 2131.808594 708.234375 2133.09375 710.261719 C 2135.6875 714.359375 2254.832031 719.488281 2254.832031 715.503906 C 2254.832031 714.140625 2250.441406 699.851562 2245.078125 683.746094 C 2239.710938 667.636719 2225.132812 618.859375 2212.675781 575.351562 L 2190.023438 496.246094 L 2199.464844 494.132812 C 2222.363281 488.996094 2241.117188 470.289062 2247.636719 446.085938 C 2250.246094 436.394531 2251.246094 394.25 2250.488281 325.933594 C 2249.136719 204.144531 2248.199219 200.164062 2216.21875 180.296875 L 2198.480469 169.277344 L 2080.539062 168.132812 C 2015.671875 167.5 1961.394531 168.191406 1959.925781 169.660156 M 263.617188 179.480469 C 263.617188 185.6875 274.121094 200.503906 278.519531 200.503906 C 285.070312 200.503906 282.070312 182.441406 274.878906 178.589844 C 265.621094 173.636719 263.617188 173.796875 263.617188 179.480469 M 2710.058594 177.625 L 2645.441406 178.625 L 2643.019531 297.023438 C 2641.683594 362.144531 2640.59375 434.0625 2640.589844 456.84375 L 2640.582031 498.269531 L 2759.980469 496.246094 L 2759.980469 436.542969 C 2759.980469 403.707031 2760.289062 376.839844 2760.664062 376.84375 C 2762.339844 376.855469 2816.925781 489.960938 2816.925781 493.421875 C 2816.925781 499.59375 2822.4375 499.988281 2891.359375 498.765625 L 2956.609375 497.609375 L 2955.648438 337.660156 L 2954.695312 177.707031 L 2899.714844 178.261719 C 2869.480469 178.566406 2843.855469 179.695312 2842.773438 180.773438 C 2841.6875 181.847656 2840.273438 209.386719 2839.625 241.964844 L 2838.445312 301.210938 L 2824.601562 270.144531 C 2810.148438 237.714844 2781.035156 181.632812 2777.011719 178.460938 C 2775.726562 177.449219 2745.597656 177.074219 2710.058594 177.625 M 2352.316406 183.054688 C 2351.503906 185.582031 2342.523438 224.84375 2332.355469 270.308594 C 2322.191406 315.769531 2306.371094 384.96875 2297.207031 424.085938 C 2288.046875 463.199219 2280.546875 495.890625 2280.546875 496.730469 C 2280.546875 497.574219 2308.109375 497.808594 2341.796875 497.253906 L 2403.046875 496.246094 L 2407.496094 476.039062 C 2409.945312 464.925781 2419.796875 417.8125 2429.394531 371.335938 C 2438.988281 324.863281 2448.082031 284.496094 2449.601562 281.628906 C 2451.386719 278.261719 2453.292969 282.15625 2455 292.652344 C 2456.449219 301.578125 2463.109375 332.855469 2469.796875 362.152344 C 2476.484375 391.449219 2482.515625 420.382812 2483.199219 426.445312 C 2484.414062 437.191406 2484.007812 437.496094 2466.996094 438.585938 L 2449.542969 439.707031 L 2449.542969 498.082031 L 2534.042969 498.082031 C 2580.515625 498.082031 2618.539062 497.402344 2618.539062 496.574219 C 2618.539062 494.917969 2605.917969 441.160156 2588.71875 369.566406 C 2582.65625 344.34375 2572.03125 298.054688 2565.101562 266.699219 C 2558.171875 235.34375 2550.609375 202.660156 2548.304688 194.074219 L 2544.109375 178.460938 L 2448.953125 178.460938 C 2376.058594 178.460938 2353.449219 179.539062 2352.316406 183.054688 M 3016.964844 183.628906 C 3010.804688 186.3125 3001.550781 193.511719 2996.402344 199.632812 L 2987.046875 210.753906 L 2984.910156 333.292969 C 2982.457031 473.882812 2982.59375 474.703125 3011.324219 490.425781 C 3027.503906 499.277344 3027.742188 499.296875 3132.1875 498.484375 C 3289.371094 497.265625 3279.796875 507.5 3279.8125 340.664062 C 3279.832031 205.636719 3279.425781 203.363281 3252.394531 187.519531 L 3236.933594 178.460938 L 3132.550781 178.605469 C 3054.101562 178.714844 3025.386719 179.960938 3016.964844 183.628906 M 355.460938 222.429688 C 325.378906 226.300781 274.90625 239.179688 269.804688 244.277344 C 261.609375 252.472656 271.679688 252.191406 307.21875 243.230469 C 373.285156 226.570312 446.582031 226.949219 497.542969 244.21875 C 510.875 248.738281 520.261719 250.175781 522.4375 248.03125 C 538.542969 232.148438 420.507812 214.054688 355.460938 222.429688 M 3107.894531 241.652344 C 3104.699219 244.847656 3103.484375 271.585938 3103.484375 338.878906 C 3103.484375 443.320312 3102.347656 439.300781 3131.929688 439.300781 C 3158.851562 439.300781 3158.449219 440.667969 3161.082031 341.046875 C 3163.84375 236.648438 3164.015625 237.242188 3131.203125 237.242188 C 3120.808594 237.242188 3110.320312 239.226562 3107.894531 241.652344 M 349.949219 246.328125 C 347.929688 246.964844 334.285156 249.460938 319.628906 251.882812 C 302.363281 254.734375 293.847656 257.675781 295.433594 260.242188 C 297.011719 262.789062 295.597656 263.328125 291.480469 261.75 C 283.4375 258.664062 266.652344 262.632812 269.34375 266.980469 C 270.445312 268.761719 268.9375 269.300781 266 268.171875 C 259.253906 265.582031 222.617188 281.074219 225.28125 285.390625 C 226.371094 287.152344 224.972656 287.714844 222.175781 286.640625 C 215.21875 283.96875 177.714844 312.261719 154.585938 337.628906 C 130.277344 364.285156 116.226562 393.796875 113.871094 423.128906 L 112.054688 445.761719 L 311.828125 448.441406 C 574.636719 451.972656 681.398438 450.417969 686.433594 442.976562 C 688.488281 439.945312 689.433594 427.042969 688.542969 414.304688 C 686.175781 380.523438 669.9375 349.816406 639.859375 322.257812 C 604.296875 289.671875 532.921875 255.367188 512.589844 261.09375 C 507.238281 262.597656 505.921875 262.273438 508.921875 260.179688 C 517.238281 254.371094 445.355469 244.441406 397.710938 244.820312 C 373.464844 245.011719 351.972656 245.691406 349.949219 246.328125 M 1182.945312 375.761719 L 1183.910156 503.59375 L 1231.667969 503.59375 L 1231.667969 250.101562 L 1206.824219 249.011719 L 1181.976562 247.925781 Z M 1498.023438 327.25 L 1498.023438 387.867188 L 1519.496094 387.867188 C 1551.714844 387.867188 1553.128906 385.222656 1553.128906 324.941406 C 1553.128906 291.347656 1551.714844 274.035156 1548.722656 271.042969 C 1546.226562 268.546875 1534.273438 266.632812 1521.167969 266.632812 L 1498.023438 266.632812 Z M 2076.441406 271.359375 C 2075.445312 273.957031 2075.085938 304.132812 2075.640625 338.410156 L 2076.648438 400.726562 L 2096.503906 403.152344 C 2118.511719 405.835938 2124.695312 404.554688 2127.71875 396.679688 C 2128.839844 393.753906 2130.875 366.605469 2132.242188 336.339844 C 2135.269531 269.21875 2134.070312 266.632812 2099.847656 266.632812 C 2085.636719 266.632812 2077.636719 268.25 2076.441406 271.359375 M 319.992188 290.671875 C 318.792969 293.789062 318.738281 297.261719 319.863281 298.386719 C 323.082031 301.605469 329.746094 296.148438 329.746094 290.296875 C 329.746094 283.246094 322.734375 283.519531 319.992188 290.671875 M 364.027344 294.472656 C 362.804688 297.660156 364.238281 302.703125 367.214844 305.679688 C 371.886719 310.347656 373.21875 310.375 376.964844 305.859375 C 382.210938 299.535156 378.746094 288.675781 371.488281 288.675781 C 368.605469 288.675781 365.253906 291.285156 364.03125 294.472656 M 449.144531 296.023438 C 447.679688 298.398438 448.128906 301.988281 450.152344 304.011719 C 452.601562 306.460938 454.714844 306.246094 456.492188 303.371094 C 457.957031 300.996094 457.507812 297.40625 455.484375 295.382812 C 453.035156 292.933594 450.921875 293.148438 449.144531 296.023438 M 400.238281 321.972656 C 401.121094 324.621094 404.015625 327.515625 406.667969 328.402344 C 409.421875 329.320312 410.800781 327.941406 409.882812 325.1875 C 408.996094 322.535156 406.101562 319.640625 403.453125 318.757812 C 400.699219 317.839844 399.320312 319.214844 400.238281 321.972656 M 543.171875 323.160156 C 540.167969 326.78125 540.011719 329.183594 542.675781 330.828125 C 544.808594 332.148438 547.574219 330.570312 548.820312 327.324219 C 551.917969 319.242188 548.511719 316.730469 543.171875 323.160156 M 310.675781 342.992188 C 311.996094 349.894531 311.234375 351.480469 307.664062 349.273438 C 304.585938 347.367188 303.785156 347.769531 305.417969 350.402344 C 306.800781 352.648438 310.632812 353.449219 313.933594 352.183594 C 318.375 350.480469 319.140625 351.234375 316.902344 355.097656 C 315.207031 358.011719 315.273438 359.035156 317.046875 357.421875 C 323.582031 351.46875 322.726562 337.378906 315.722656 335.546875 C 310.132812 334.085938 309.230469 335.421875 310.675781 342.992188 M 582.113281 338.785156 C 579.179688 341.71875 582.496094 347.457031 587.128906 347.457031 C 589.03125 347.457031 590.585938 344.976562 590.585938 341.945312 C 590.585938 336.265625 586.25 334.648438 582.113281 338.785156 M 344.835938 348.816406 C 341.460938 352.886719 341.804688 355.320312 346.414062 359.925781 C 353.964844 367.484375 354 367.46875 353.792969 356.945312 C 353.574219 345.367188 350.222656 342.324219 344.835938 348.816406 M 451.546875 352.738281 C 452.25 356.109375 454.472656 358.78125 456.492188 358.671875 C 461.945312 358.382812 460.945312 350.164062 455.222656 348.257812 C 452.132812 347.230469 450.757812 348.90625 451.546875 352.738281 M 550.175781 367.664062 C 550.175781 370.695312 551.828125 373.171875 553.847656 373.171875 C 555.867188 373.171875 557.523438 370.695312 557.523438 367.664062 C 557.523438 364.632812 555.867188 362.152344 553.847656 362.152344 C 551.828125 362.152344 550.175781 364.632812 550.175781 367.664062 M 264.535156 369.613281 C 255.203125 373.363281 253.394531 380.519531 261.777344 380.519531 C 264.808594 380.519531 268.390625 380.9375 269.742188 381.441406 C 271.089844 381.941406 272.464844 378.640625 272.800781 374.09375 C 273.136719 369.542969 273.269531 365.933594 273.105469 366.058594 C 272.9375 366.1875 269.078125 367.789062 264.535156 369.613281 M 400.132812 377.984375 C 395.140625 383.996094 398.128906 387.867188 407.777344 387.867188 C 412.339844 387.867188 414.367188 385.734375 413.59375 381.746094 C 412.011719 373.59375 405.328125 371.722656 400.132812 377.984375 M 499.140625 378.203125 C 495.867188 382.148438 495.796875 384.214844 498.882812 386.121094 C 504.871094 389.824219 512.308594 381.597656 507.402344 376.691406 C 504.742188 374.035156 502.214844 374.496094 499.140625 378.203125 M 114.320312 459.507812 C 110.886719 468.445312 115.316406 474.855469 126.449219 477.078125 C 141.289062 480.042969 652.503906 480.476562 670.871094 477.539062 C 682.320312 475.707031 686.105469 473.425781 686.105469 468.351562 C 686.105469 464.640625 682.910156 459.894531 679 457.800781 C 674.28125 455.277344 578.585938 453.996094 394.160156 453.996094 C 150.679688 453.996094 116.171875 454.675781 114.320312 459.507812 M 128.425781 497.402344 C 115.324219 509.492188 112.988281 513.835938 112.988281 526.09375 C 112.988281 543.082031 119.371094 553.398438 136.378906 563.910156 C 148.597656 571.464844 151.90625 571.558594 397.34375 571.558594 C 667.085938 571.558594 661.914062 571.933594 678.140625 551.304688 C 687.792969 539.035156 688.496094 519.800781 679.839844 505.136719 C 667.007812 483.425781 674.449219 483.992188 397.535156 483.554688 L 143.859375 483.148438 Z M 1498.023438 551.355469 L 1498.023438 615.644531 L 1521.167969 615.644531 C 1534.273438 615.644531 1546.226562 613.730469 1548.722656 611.238281 C 1554.886719 605.074219 1554.886719 497.636719 1548.722656 491.472656 C 1546.226562 488.976562 1534.273438 487.0625 1521.167969 487.0625 L 1498.023438 487.0625 Z M 508.539062 518.902344 C 504.308594 523.128906 505.859375 527.472656 511.597656 527.472656 C 514.628906 527.472656 517.109375 524.996094 517.109375 521.964844 C 517.109375 516.226562 512.765625 514.675781 508.539062 518.902344 M 2283.050781 533.902344 C 2282.167969 535.421875 2280.832031 577.988281 2280.078125 628.503906 L 2278.710938 720.351562 L 2322.796875 721.472656 C 2378.730469 722.890625 2409.074219 720.300781 2420.175781 709.199219 C 2427.890625 701.484375 2428.898438 697.113281 2428.898438 671.328125 C 2428.898438 648.5 2427.429688 640.367188 2422.140625 633.832031 C 2415.578125 625.730469 2415.578125 625.289062 2422.140625 618.726562 C 2427.425781 613.445312 2428.898438 606.316406 2428.898438 586.070312 C 2428.898438 553.0625 2422.628906 540.160156 2404.089844 535.011719 C 2388.378906 530.648438 2297.902344 529.722656 2295.46875 533.902344 M 2446.195312 533.449219 C 2441.855469 537.785156 2443.121094 696.078125 2447.558594 704.367188 C 2454.222656 716.820312 2473.5 722.1875 2511.558594 722.1875 C 2549.617188 722.1875 2568.890625 716.820312 2575.554688 704.367188 C 2578.0625 699.683594 2579.523438 666.410156 2579.523438 614.050781 L 2579.523438 531.148438 L 2565.746094 531.1875 C 2558.171875 531.210938 2545.804688 532.246094 2538.265625 533.496094 L 2524.566406 535.757812 L 2523.570312 609.6875 L 2522.578125 683.613281 L 2500.535156 683.613281 L 2498.699219 608.296875 L 2496.863281 532.984375 L 2472.828125 531.917969 C 2459.605469 531.328125 2447.621094 532.019531 2446.195312 533.449219 M 2596.671875 533.597656 C 2595.320312 534.945312 2594.21875 577.027344 2594.21875 627.113281 L 2594.21875 718.179688 L 2606.320312 720.449219 C 2612.976562 721.699219 2624.960938 722.1875 2632.957031 721.535156 L 2647.488281 720.351562 L 2649.328125 687.285156 L 2651.164062 654.222656 L 2664.023438 686.277344 C 2675.214844 714.183594 2678.234375 718.625 2687.320312 720.621094 C 2696.613281 722.664062 2730.152344 719.792969 2730.152344 716.953125 C 2730.152344 716.339844 2724.5 700.644531 2717.59375 682.070312 L 2705.039062 648.300781 L 2713.15625 645.214844 C 2728.542969 639.363281 2731.695312 631.199219 2733.21875 593.230469 L 2734.671875 556.980469 L 2721.761719 544.066406 L 2708.84375 531.148438 L 2653.980469 531.148438 C 2623.804688 531.148438 2598.015625 532.25 2596.671875 533.597656 M 2766.984375 535.796875 C 2746.726562 542.996094 2744.960938 550.429688 2744.902344 628.605469 C 2744.839844 706.203125 2746.09375 711.042969 2768.058594 718.292969 C 2784.597656 223.753906 2876.195312 722.195312 2881.027344 716.371094 C 2883.15625 713.8125 2884.238281 690.867188 2883.640625 661.066406 L 2882.613281 610.136719 L 2818.324219 608.011719 L 2818.324219 626.132812 C 2818.324219 637.664062 2820.066406 644.917969 2823.128906 646.09375 C 2826.582031 647.421875 2827.355469 652.945312 2825.882812 665.777344 C 2823.941406 682.691406 2823.265625 683.613281 2812.8125 683.613281 L 2801.789062 683.613281 L 2800.769531 630.839844 C 2799.6875 574.855469 2801.730469 566.5625 2816.140625 568.628906 C 2821.402344 569.382812 2824.375 573.160156 2825.675781 580.746094 L 2827.558594 591.765625 L 2885.386719 593.929688 L 2883.679688 573.320312 C 2882.347656 557.234375 2879.808594 550.550781 2872.113281 542.847656 C 2862.722656 533.449219 2860.328125 532.945312 2821.003906 532.121094 C 2795.394531 531.582031 2774.910156 532.976562 2766.984375 535.796875 M 2897.050781 536.007812 C 2895.953125 538.863281 2895.566406 576.925781 2896.1875 620.59375 L 2897.308594 699.992188 L 2907.488281 710.171875 C 2917.347656 720.035156 2919.078125 720.386719 2963.128906 721.558594 L 3008.59375 722.773438 L 3019.828125 712.375 L 3031.0625 701.980469 L 3031.613281 622.992188 C 3031.914062 579.550781 3031.992188 541.042969 3031.785156 537.414062 C 3031.449219 531.613281 3028.222656 530.953125 3004.769531 531.90625 L 2978.132812 532.984375 L 2976.148438 685.921875 L 2966.121094 684.765625 L 2956.089844 683.613281 L 2954.253906 608.296875 L 2952.417969 532.984375 L 2925.730469 531.90625 C 2905.390625 531.082031 2898.566406 532.058594 2897.050781 536.007812 M 3048.320312 546.667969 C 3047.253906 555.308594 3046.730469 597.921875 3047.164062 641.363281 L 3047.9375 720.351562 L 3158.152344 720.351562 L 3159.273438 702.898438 L 3160.394531 685.449219 L 3100.820312 685.449219 L 3101.933594 666.160156 L 3103.042969 646.875 L 3120.34375 646.714844 C 3129.859375 646.632812 3138.464844 645.746094 3139.464844 644.746094 C 3140.460938 643.746094 3144.589844 635.550781 3148.640625 626.53125 L 3156 610.136719 L 3129.523438 608.296875 L 3103.042969 606.460938 L 3100.816406 571.875 L 3129.484375 570.800781 L 3158.152344 569.722656 L 3158.152344 532.984375 L 3104.203125 531.972656 L 3050.25 530.953125 Z M 3174.007812 535.492188 C 3173.097656 538.15625 3173.0625 581.25 3173.933594 631.261719 L 3175.519531 722.1875 L 3198.761719 722.1875 C 3211.546875 722.1875 3222.835938 720.847656 3223.851562 719.210938 C 3224.863281 717.578125 3226.035156 704.347656 3226.460938 689.820312 C 3226.886719 675.289062 3228.488281 663.40625 3230.023438 663.40625 C 3231.558594 663.40625 3237.390625 675.0625 3242.980469 689.308594 C 3248.570312 703.558594 3254.914062 716.339844 3257.082031 717.710938 C 3263.082031 721.515625 3297.292969 722.207031 3303.066406 718.636719 C 3307.25 716.050781 3306.082031 709.980469 3296.53125 684.671875 C 3284.109375 651.761719 3282.761719 645.035156 3288.574219 645.035156 C 3290.59375 645.035156 3295.554688 641.730469 3299.59375 637.6875 C 3306.039062 631.246094 3306.941406 625.445312 3306.941406 590.570312 C 3306.941406 552.582031 3306.519531 550.398438 3297.472656 541.890625 C 3288.4375 533.394531 3285.433594 532.929688 3231.835938 531.816406 C 3187.816406 530.898438 3175.304688 531.691406 3174.007812 535.492188 M 2652.410156 589.9375 L 2651.164062 611.988281 L 2663.105469 611.980469 L 2675.042969 611.972656 L 2675.042969 592.195312 C 2675.042969 574.789062 2674.050781 572.152344 2666.777344 570.199219 C 2662.234375 568.984375 2657.417969 567.964844 2656.082031 567.9375 C 2654.746094 567.910156 2653.09375 577.808594 2652.410156 589.9375 M 3227.980469 582.425781 C 3224.398438 603.625 3228.09375 611.972656 3241.058594 611.972656 C 3251.644531 611.972656 3251.835938 611.625 3251.835938 592.160156 C 3251.835938 577.484375 3250.328125 571.769531 3246.023438 570.117188 C 3234.109375 565.542969 3230.40625 568.070312 3227.980469 582.425781 M 2348.074219 589.929688 C 2348.074219 607.125 2348.667969 608.296875 2357.347656 608.296875 C 2368.039062 608.296875 2375.566406 593.835938 2372.085938 579.96875 C 2370.476562 573.558594 2367.371094 571.558594 2359.023438 571.558594 C 2348.332031 571.558594 2348.074219 571.992188 2348.074219 589.929688 M 127.855469 581.359375 C 124.328125 584.886719 124.949219 605.558594 128.761719 611.582031 C 132.660156 617.734375 150.777344 624.902344 187.863281 634.953125 L 215.414062 642.421875 L 238.144531 634.542969 C 266.46875 624.730469 285.191406 624.59375 309.976562 634.011719 C 335.074219 643.554688 345.480469 643.28125 382.769531 632.121094 C 412.027344 623.363281 414.507812 623.171875 429.992188 628.445312 C 448.199219 634.648438 495.03125 635.617188 533.953125 630.597656 C 553.75 628.046875 563.707031 628.765625 584.648438 634.261719 C 612.492188 641.574219 635.980469 639.882812 657.191406 629.042969 C 662.75 626.203125 672.683594 622.71875 679.265625 621.300781 C 693.539062 618.226562 699.875 608.125 696.675781 593.554688 C 692.890625 576.316406 689.722656 576.332031 627.808594 593.859375 C 613.234375 597.984375 607.792969 597.988281 594.746094 593.890625 C 568.683594 585.699219 532.359375 584.894531 508.527344 591.980469 C 232.0 599.183594 459.332031 599.160156 445.335938 591.925781 C 427.539062 582.722656 403.035156 581.296875 382.113281 588.246094 C 364.390625 594.132812 358.339844 594.265625 309.777344 589.824219 C 265.820312 585.804688 254.824219 585.808594 245.285156 589.839844 C 223.816406 598.925781 202.582031 598.464844 175.835938 588.332031 C 151.578125 579.144531 132.796875 576.414062 127.855469 581.359375 M 1076.929688 663.40625 L 1076.929688 711.164062 L 1363.488281 711.164062 L 1363.488281 615.644531 L 1076.929688 615.644531 Z M 2348.074219 665.484375 C 2348.074219 685.597656 2348.238281 685.917969 2358.109375 684.773438 C 2369.8125 683.417969 2376.226562 669.941406 2372.414062 654.734375 C 2370.460938 646.964844 2367.796875 645.035156 2359.023438 645.035156 C 2348.183594 645.035156 2348.074219 645.242188 2348.074219 665.484375 M 127.855469 654.835938 C 122.402344 660.285156 125.945312 683.886719 134.378906 698.273438 C 150.691406 726.105469 183.261719 741.597656 238.410156 747.746094 C 338.125 758.863281 572.582031 755.429688 623.757812 742.09375 C 678.015625 727.960938 702.546875 700.832031 699.058594 658.8125 C 698.554688 652.75 682.339844 652.382812 414.414062 652.382812 C 258.152344 652.382812 129.203125 653.488281 127.855469 654.835938 " fill-opacity="1" fill-rule="evenodd"/></g></svg>
